<?xml version="1.0" encoding="UTF-8" standalone="no"?>
<svg
   xmlns:dc="http://purl.org/dc/elements/1.1/"
   xmlns:cc="http://creativecommons.org/ns#"
   xmlns:rdf="http://www.w3.org/1999/02/22-rdf-syntax-ns#"
   xmlns:svg="http://www.w3.org/2000/svg"
   xmlns="http://www.w3.org/2000/svg"
   xmlns:sodipodi="http://sodipodi.sourceforge.net/DTD/sodipodi-0.dtd"
   xmlns:inkscape="http://www.inkscape.org/namespaces/inkscape"
   height="182.51"
   width="182.51"
   version="1.1"
   viewBox="0 0 182.51136 182.51138"
   id="svg2"
   inkscape:version="0.91 r13725"
   sodipodi:docname="logo.svg">
  <metadata
     id="metadata186">
    <rdf:RDF>
      <cc:Work
         rdf:about="">
        <dc:format>image/svg+xml</dc:format>
        <dc:type
           rdf:resource="http://purl.org/dc/dcmitype/StillImage" />
      </cc:Work>
    </rdf:RDF>
  </metadata>
  <defs
     id="defs184" />
  <sodipodi:namedview
     pagecolor="#ffffff"
     bordercolor="#666666"
     borderopacity="1"
     objecttolerance="10"
     gridtolerance="10"
     guidetolerance="10"
     inkscape:pageopacity="0"
     inkscape:pageshadow="2"
     inkscape:window-width="1920"
     inkscape:window-height="1027"
     id="namedview182"
     showgrid="false"
     inkscape:zoom="2.5861597"
     inkscape:cx="150.10308"
     inkscape:cy="88.516839"
     inkscape:window-x="-8"
     inkscape:window-y="-8"
     inkscape:window-maximized="1"
     inkscape:current-layer="svg2" />
  <g
     id="g8"
     style="fill:none;stroke:#4d4d4d;stroke-width:0.5;stroke-linejoin:round"
     transform="matrix(3.977,0,0,3.977,-4.193,-3998.54)">
    <path
       d="m 23.968,1037 c -0.41118,-0.013 -0.81735,-0.1548 -1.1474,-0.4004 -0.33003,-0.2456 -0.58246,-0.594 -0.71306,-0.9841 -0.32391,0.2922 -0.74424,0.4758 -1.1788,0.5147 -0.43452,0.039 -0.88078,-0.067 -1.2515,-0.297 -0.34957,-0.2169 -0.63046,-0.5428 -0.79348,-0.9205 -0.16302,-0.3777 -0.20744,-0.8056 -0.12548,-1.2088 -0.42559,0.1 -0.88327,0.058 -1.2835,-0.1181 -0.4002,-0.176 -0.74066,-0.4847 -0.95474,-0.8659 -0.20387,-0.363 -0.29245,-0.7896 -0.24994,-1.2037 0.04251,-0.4141 0.21591,-0.8138 0.48926,-1.1278 -0.40558,-0.1476 -0.7621,-0.4267 -1.0026,-0.7851 -0.24053,-0.3583 -0.36384,-0.794 -0.34676,-1.2253 0.01625,-0.4104 0.15918,-0.8149 0.40439,-1.1444 0.24521,-0.3295 0.59164,-0.5826 0.98009,-0.716 -0.29223,-0.3239 -0.47575,-0.7442 -0.51466,-1.1788 -0.03891,-0.4345 0.067,-0.8807 0.29702,-1.2514 0.21691,-0.3496 0.54275,-0.6304 0.92046,-0.7935 0.37771,-0.163 0.8056,-0.2074 1.2088,-0.1255 -0.09114,-0.4266 -0.03992,-0.8824 0.14365,-1.2782 0.18356,-0.3958 0.49842,-0.7293 0.88299,-0.9353 0.36264,-0.1943 0.78526,-0.2746 1.1939,-0.2269 0.40862,0.048 0.80139,0.2232 1.1096,0.4957 0.1344,-0.415 0.40666,-0.7842 0.76351,-1.0351 0.35685,-0.251 0.79628,-0.3824 1.2323,-0.3685 0.41118,0.013 0.81735,0.1548 1.1474,0.4004 0.33003,0.2456 0.58246,0.594 0.71306,0.9841 0.32391,-0.2922 0.74424,-0.4758 1.1788,-0.5147 0.43452,-0.039 0.88078,0.067 1.2515,0.297 0.34957,0.2169 0.63046,0.5428 0.79348,0.9205 0.16302,0.3777 0.20744,0.8056 0.12548,1.2088 0.42663,-0.091 0.88242,-0.04 1.2782,0.1436 0.39576,0.1836 0.72928,0.4984 0.93528,0.883 0.19426,0.3626 0.27459,0.7852 0.22691,1.1939 -0.04768,0.4086 -0.22314,0.8013 -0.49568,1.1095 0.41504,0.1344 0.78414,0.4067 1.0351,0.7635 0.25096,0.3568 0.38236,0.7963 0.3685,1.2323 -0.01307,0.4112 -0.15482,0.8174 -0.40042,1.1474 -0.2456,0.3301 -0.59395,0.5825 -0.98406,0.7131 0.29223,0.3239 0.47575,0.7442 0.51466,1.1788 0.03891,0.4345 -0.067,0.8807 -0.29702,1.2514 -0.21691,0.3496 -0.54275,0.6304 -0.92046,0.7935 -0.37771,0.163 -0.8056,0.2074 -1.2088,0.1255 0.09114,0.4266 0.03992,0.8824 -0.14365,1.2782 -0.18356,0.3958 -0.49842,0.7293 -0.88299,0.9353 -0.36264,0.1943 -0.78526,0.2746 -1.1939,0.2269 -0.40862,-0.048 -0.8014,-0.2232 -1.1096,-0.4957 -0.1344,0.415 -0.40666,0.7841 -0.76351,1.0351 -0.35685,0.251 -0.79628,0.3824 -1.2323,0.3685 z"
       id="path10"
       inkscape:connector-curvature="0"
       style="stroke:#4d4d4d" />
    <path
       d="m 30.369,1017.5 c 0.35701,0.1899 0.77517,0.2626 1.1753,0.2044 0.40017,-0.058 0.78026,-0.2471 1.0683,-0.5309 -0.21063,0.371 -0.29221,0.8137 -0.22767,1.2354 0.06453,0.4217 0.27477,0.8197 0.58671,1.1107 0.29569,0.2759 0.68076,0.4543 1.0824,0.5017 0.40161,0.047 0.81763,-0.037 1.1694,-0.2363 -0.29948,0.3038 -0.49286,0.7103 -0.53967,1.1343 -0.04681,0.4241 0.05325,0.863 0.27924,1.2248 0.21422,0.343 0.53998,0.6151 0.91566,0.7647 0.37568,0.1497 0.79928,0.1761 1.1907,0.074 -0.36791,0.216 -0.6599,0.5585 -0.81487,0.956 -0.15497,0.3975 -0.17191,0.8473 -0.04727,1.2553 0.11814,0.3867 0.36239,0.7339 0.68653,0.9757 0.32414,0.2418 0.72647,0.377 1.1308,0.38 -0.41127,0.1134 -0.78198,0.3687 -1.0345,0.7125 -0.25256,0.3438 -0.38535,0.7739 -0.37056,1.2003 0.01402,0.4042 0.1601,0.8027 0.41062,1.1201 0.25052,0.3175 0.60414,0.5522 0.99397,0.6598 -0.42662,0 -0.85078,0.1537 -1.1837,0.4205 -0.33295,0.2667 -0.57252,0.6478 -0.66858,1.0635 -0.09105,0.394 -0.05307,0.8167 0.10675,1.1882 0.15982,0.3714 0.44064,0.6897 0.78932,0.8945 -0.41287,-0.1075 -0.86158,-0.072 -1.2522,0.1 -0.39065,0.1715 -0.72069,0.4776 -0.92105,0.8542 -0.18991,0.357 -0.26264,0.7751 -0.2044,1.1753 0.05823,0.4002 0.24711,0.7802 0.5309,1.0683 -0.37101,-0.2106 -0.81369,-0.2922 -1.2354,-0.2277 -0.42172,0.065 -0.81973,0.2748 -1.1108,0.5868 -0.27584,0.2957 -0.45431,0.6808 -0.50164,1.0824 -0.04733,0.4016 0.03674,0.8176 0.2363,1.1693 -0.30384,-0.2995 -0.71032,-0.4929 -1.1344,-0.5397 -0.42405,-0.047 -0.86292,0.053 -1.2248,0.2793 -0.343,0.2142 -0.61506,0.54 -0.76472,0.9157 -0.14966,0.3757 -0.17611,0.7993 -0.07437,1.1907 -0.21596,-0.3679 -0.55853,-0.6599 -0.95602,-0.8149 -0.39749,-0.155 -0.84731,-0.1719 -1.2553,-0.047 -0.38675,0.1181 -0.73386,0.3624 -0.97564,0.6865 -0.24179,0.3242 -0.37699,0.7265 -0.38001,1.1309 -0.11339,-0.4113 -0.36872,-0.782 -0.71255,-1.0346 -0.34383,-0.2525 -0.77394,-0.3853 -1.2003,-0.3705 -0.40413,0.014 -0.80262,0.1601 -1.1201,0.4106 -0.31744,0.2505 -0.55217,0.6041 -0.65977,0.9939 -0.0031,-0.4266 -0.15379,-0.8507 -0.42054,-1.1837 -0.26675,-0.3329 -0.64782,-0.5724 -1.0635,-0.6685 -0.39401,-0.091 -0.81674,-0.053 -1.1882,0.1068 -0.37147,0.1598 -0.68971,0.4406 -0.89452,0.7893 0.10748,-0.4129 0.07174,-0.8616 -0.09975,-1.2523 -0.17149,-0.3907 -0.4776,-0.7207 -0.85428,-0.9211 -0.35702,-0.1899 -0.77518,-0.2626 -1.1754,-0.2044 -0.40017,0.058 -0.78025,0.2472 -1.0683,0.531 0.21066,-0.371 0.29226,-0.8137 0.22772,-1.2354 -0.06454,-0.4217 -0.27479,-0.8198 -0.58675,-1.1108 -0.2957,-0.2758 -0.68078,-0.4543 -1.0824,-0.5016 -0.40161,-0.047 -0.81762,0.037 -1.1693,0.2363 0.2995,-0.3038 0.49289,-0.7103 0.5397,-1.1344 0.04681,-0.4241 -0.05326,-0.8629 -0.27927,-1.2248 -0.21422,-0.343 -0.53999,-0.615 -0.91566,-0.7647 -0.37567,-0.1497 -0.79928,-0.1761 -1.1907,-0.074 0.36791,-0.216 0.6599,-0.5585 0.81487,-0.956 0.15497,-0.3975 0.1719,-0.8473 0.04727,-1.2553 -0.11814,-0.3867 -0.36239,-0.7339 -0.68653,-0.9757 -0.32414,-0.2418 -0.72646,-0.377 -1.1308,-0.38 0.41127,-0.1134 0.78197,-0.3687 1.0345,-0.7125 0.25256,-0.3439 0.38534,-0.7739 0.37056,-1.2003 -0.01401,-0.4042 -0.1601,-0.8027 -0.41061,-1.1201 -0.25051,-0.3175 -0.60413,-0.5522 -0.99395,-0.6598 0.42661,0 0.85076,-0.1538 1.1837,-0.4205 0.33294,-0.2668 0.57251,-0.6478 0.66857,-1.0635 0.09105,-0.394 0.05308,-0.8167 -0.10674,-1.1882 -0.15981,-0.3714 -0.44062,-0.6897 -0.7893,-0.8945 0.41287,0.1074 0.86156,0.072 1.2522,-0.1 0.39063,-0.1715 0.72067,-0.4776 0.92105,-0.8542 0.18995,-0.357 0.2627,-0.7752 0.20447,-1.1754 -0.05822,-0.4002 -0.24711,-0.7803 -0.53092,-1.0684 0.37098,0.2107 0.81364,0.2923 1.2353,0.2278 0.42171,-0.065 0.81972,-0.2748 1.1108,-0.5867 0.27588,-0.2957 0.45438,-0.6808 0.50172,-1.0824 0.04733,-0.4016 -0.03674,-0.8177 -0.23632,-1.1694 0.30382,0.2995 0.71028,0.4929 1.1343,0.5397 0.42404,0.047 0.86291,-0.053 1.2248,-0.2792 0.34299,-0.2142 0.61506,-0.54 0.76473,-0.9156 0.14967,-0.3757 0.17614,-0.7993 0.07441,-1.1907 0.21598,0.3679 0.55854,0.6599 0.95602,0.8148 0.39748,0.155 0.84727,0.1719 1.2553,0.047 0.38675,-0.1181 0.73386,-0.3624 0.97566,-0.6865 0.2418,-0.3242 0.377,-0.7265 0.38003,-1.1309 0.11339,0.4113 0.36871,0.782 0.71254,1.0346 0.34383,0.2525 0.77394,0.3853 1.2003,0.3705 0.40414,-0.014 0.80264,-0.1601 1.1201,-0.4106 0.31744,-0.2506 0.55216,-0.6042 0.65975,-0.994 0.0031,0.4266 0.15376,0.8508 0.42051,1.1837 0.26675,0.333 0.64783,0.5725 1.0635,0.6686 0.394,0.091 0.81672,0.053 1.1882,-0.1067 0.37146,-0.1598 0.68972,-0.4406 0.89454,-0.7893 -0.10745,0.4129 -0.07169,0.8616 0.0998,1.2522 0.17149,0.3907 0.47758,0.7207 0.85423,0.9211 z"
       id="path12"
       inkscape:connector-curvature="0"
       style="stroke:#4d4d4d" />
    <circle
       cy="1028.4"
       cx="24"
       r="14.5"
       id="circle14"
       style="stroke-linecap:round;stroke:#4d4d4d" />
  </g>
  <path
     style="color:#000000;text-indent:0;text-decoration:none;text-decoration-line:none;text-decoration-style:solid;text-decoration-color:#000000;text-transform:none;block-progression:tb;white-space:normal;isolation:auto;mix-blend-mode:normal;solid-color:#000000;fill:#4d4d4d;color-rendering:auto;image-rendering:auto;shape-rendering:auto"
     d="m 91.255,17.770259 c -40.60517,0 -73.650063,33.046881 -73.65404,73.65404 0.0016,40.605171 33.04887,73.650061 73.65404,73.650061 40.60517,0 73.65404,-33.04648 73.65404,-73.654038 C 164.90506,50.819129 131.86017,17.770259 91.255,17.770259 Z m 0,1.9885 a 3.977,3.977 0 0 1 3.977,3.977 3.977,3.977 0 0 1 -3.977,3.977 3.977,3.977 0 0 1 -3.977,-3.977 3.977,3.977 0 0 1 3.977,-3.977 z m -8.956204,0.574796 a 3.977,3.977 0 0 1 4.062505,3.456569 3.977,3.977 0 0 1 -3.425509,4.466171 3.977,3.977 0 0 1 -4.458615,-3.425509 3.977,3.977 0 0 1 3.42551,-4.466171 3.977,3.977 0 0 1 0.396149,-0.03106 z m 17.632427,0.0078 a 3.977,3.977 0 0 1 0.675777,0.03106 3.977,3.977 0 0 1 3.4255,4.458615 3.977,3.977 0 0 1 -4.45861,3.425509 3.977,3.977 0 0 1 -3.42551,-4.466171 3.977,3.977 0 0 1 3.782803,-3.448814 z m 8.805077,1.716871 a 3.977,3.977 0 0 1 1.06417,0.139815 3.977,3.977 0 0 1 2.81186,4.870234 3.977,3.977 0 0 1 -4.87024,2.811859 3.977,3.977 0 0 1 -2.81174,-4.870235 3.977,3.977 0 0 1 3.80599,-2.951729 z m -35.249343,0.0078 a 3.977,3.977 0 0 1 4.085572,2.943895 3.977,3.977 0 0 1 -2.811858,4.870234 3.977,3.977 0 0 1 -4.870234,-2.811859 3.977,3.977 0 0 1 2.811858,-4.870234 3.977,3.977 0 0 1 0.784503,-0.132048 z m -8.109103,2.843157 a 3.977,3.977 0 0 1 3.642932,2.454605 3.977,3.977 0 0 1 -2.151557,5.196348 3.977,3.977 0 0 1 -5.197939,-2.151557 3.977,3.977 0 0 1 2.155534,-5.196348 3.977,3.977 0 0 1 1.55103,-0.303048 z m 51.864056,0 a 3.977,3.977 0 0 1 1.4357,0.303048 3.977,3.977 0 0 1 2.15553,5.196348 3.977,3.977 0 0 1 -5.19794,2.151557 3.977,3.977 0 0 1 -2.15155,-5.196348 3.977,3.977 0 0 1 3.75826,-2.454605 z m -59.925435,3.914879 a 3.977,3.977 0 0 1 3.534241,1.9885 3.977,3.977 0 0 1 -1.455582,5.429798 3.977,3.977 0 0 1 -5.428605,-1.452798 3.977,3.977 0 0 1 1.451605,-5.429798 3.977,3.977 0 0 1 1.897029,-0.535702 z m 67.593095,0.0078 a 3.977,3.977 0 0 1 2.17542,0.528145 3.977,3.977 0 0 1 1.4516,5.429798 3.977,3.977 0 0 1 -5.4286,1.452798 3.977,3.977 0 0 1 -1.45956,-5.429798 3.977,3.977 0 0 1 3.26114,-1.980943 z m -33.657354,0.870167 c 34.157264,0 61.719064,27.563792 61.723044,61.72304 6e-5,34.157655 -27.5638,61.723045 -61.723044,61.723045 -34.15726,0 -61.72304,-27.5634 -61.72304,-61.723045 0.002,-34.158453 27.564587,-61.72304 61.72304,-61.72304 z m 41.138084,4.039041 a 3.977,3.977 0 0 1 2.48563,0.823359 3.977,3.977 0 0 1 0.73793,5.576947 3.977,3.977 0 0 1 -5.57695,0.737932 3.977,3.977 0 0 1 -0.73972,-5.577345 3.977,3.977 0 0 1 3.09411,-1.56137 z m -82.554562,0.008 a 3.977,3.977 0 0 1 3.371144,1.545781 3.977,3.977 0 0 1 -0.737932,5.576947 3.977,3.977 0 0 1 -5.576948,-0.730138 3.977,3.977 0 0 1 0.737933,-5.576947 3.977,3.977 0 0 1 2.206002,-0.815603 z m -6.385073,5.833464 a 3.977,3.977 0 0 1 2.749737,1.165142 3.977,3.977 0 0 1 0,5.623875 3.977,3.977 0 0 1 -5.623876,0 3.977,3.977 0 0 1 0,-5.623875 3.977,3.977 0 0 1 2.874019,-1.165142 z m 95.718435,0 a 3.977,3.977 0 0 1 2.74974,1.165142 3.977,3.977 0 0 1 0,5.623875 3.977,3.977 0 0 1 -5.62388,0 3.977,3.977 0 0 1 0,-5.623875 3.977,3.977 0 0 1 2.87402,-1.165142 z M 37.493119,46.239057 a 3.977,3.977 0 0 1 2.485625,0.815603 3.977,3.977 0 0 1 0.731768,5.575754 3.977,3.977 0 0 1 -5.576947,0.739722 3.977,3.977 0 0 1 -0.730178,-5.579731 3.977,3.977 0 0 1 3.089732,-1.55103 z m 107.633531,0 a 3.977,3.977 0 0 1 2.97499,1.553495 3.977,3.977 0 0 1 -0.73014,5.576947 3.977,3.977 0 0 1 -5.57694,-0.730137 3.977,3.977 0 0 1 0.73013,-5.576947 3.977,3.977 0 0 1 2.60216,-0.823358 z M 32.446306,53.600484 a 3.977,3.977 0 0 1 2.182697,0.528185 3.977,3.977 0 0 1 1.452519,5.4294 3.977,3.977 0 0 1 -5.4294,1.460315 3.977,3.977 0 0 1 -1.460315,-5.437354 3.977,3.977 0 0 1 3.254618,-1.980745 z m 117.329454,0 a 3.977,3.977 0 0 1 3.542,1.980744 3.977,3.977 0 0 1 -1.46032,5.437355 3.977,3.977 0 0 1 -5.4294,-1.460315 3.977,3.977 0 0 1 1.45252,-5.4294 3.977,3.977 0 0 1 1.89528,-0.528186 z M 28.811328,61.538576 a 3.977,3.977 0 0 1 1.429254,0.302928 3.977,3.977 0 0 1 2.159392,5.196348 3.977,3.977 0 0 1 -5.196349,2.151636 3.977,3.977 0 0 1 -2.159391,-5.196348 3.977,3.977 0 0 1 3.767292,-2.454564 z m 125.005062,0 a 3.977,3.977 0 0 1 3.64301,2.454564 3.977,3.977 0 0 1 -2.15163,5.196348 3.977,3.977 0 0 1 -5.19635,-2.151636 3.977,3.977 0 0 1 2.15163,-5.196348 3.977,3.977 0 0 1 1.5535,-0.302928 z M 25.836532,69.922092 a 3.977,3.977 0 0 1 1.07192,0.132036 3.977,3.977 0 0 1 2.811859,4.878188 3.977,3.977 0 0 1 -4.878188,2.807762 3.977,3.977 0 0 1 -2.811739,-4.867848 3.977,3.977 0 0 1 3.805989,-2.950934 z m 130.946698,0 a 3.977,3.977 0 0 1 3.68963,2.951689 3.977,3.977 0 0 1 -2.81186,4.870234 3.977,3.977 0 0 1 -4.87024,-2.811858 3.977,3.977 0 0 1 2.81186,-4.878188 3.977,3.977 0 0 1 1.18065,-0.132037 z M 23.987227,78.603883 a 3.977,3.977 0 0 1 0.683566,0.03102 3.977,3.977 0 0 1 3.417755,4.466171 3.977,3.977 0 0 1 -4.458615,3.417754 3.977,3.977 0 0 1 -3.425509,-4.458614 3.977,3.977 0 0 1 3.782803,-3.45657 z m 134.247613,0 a 3.977,3.977 0 0 1 4.07006,3.456569 3.977,3.977 0 0 1 -3.42551,4.466171 3.977,3.977 0 0 1 -4.46617,-3.425509 3.977,3.977 0 0 1 3.42551,-4.466171 3.977,3.977 0 0 1 0.39615,-0.03102 z M 23.565665,87.4368 a 3.977,3.977 0 0 1 3.977,3.977 3.977,3.977 0 0 1 -3.977,3.977 3.977,3.977 0 0 1 -3.977,-3.977 3.977,3.977 0 0 1 3.977,-3.977 z m 135.373105,0 a 3.977,3.977 0 0 1 3.977,3.977 3.977,3.977 0 0 1 -3.977,3.977 3.977,3.977 0 0 1 -3.977,-3.977 3.977,3.977 0 0 1 3.977,-3.977 z M 24.02302,96.277671 a 3.977,3.977 0 0 1 4.062505,3.456569 3.977,3.977 0 0 1 -3.425509,4.45861 3.977,3.977 0 0 1 -4.458615,-3.4255 3.977,3.977 0 0 1 3.425509,-4.458619 3.977,3.977 0 0 1 0.396145,-0.03102 z m 134.17603,0 a 3.977,3.977 0 0 1 0.67577,0.03102 3.977,3.977 0 0 1 3.42551,4.466169 3.977,3.977 0 0 1 -4.46617,3.41776 3.977,3.977 0 0 1 -3.42551,-4.458618 3.977,3.977 0 0 1 3.79055,-3.45657 z M 26.027428,104.95946 a 3.977,3.977 0 0 1 3.689582,2.94394 3.977,3.977 0 0 1 -2.811859,4.87023 3.977,3.977 0 0 1 -4.878188,-2.81186 3.977,3.977 0 0 1 2.811859,-4.87023 3.977,3.977 0 0 1 1.188447,-0.13204 z m 130.564912,0 a 3.977,3.977 0 0 1 1.06416,0.13204 3.977,3.977 0 0 1 2.81186,4.87023 3.977,3.977 0 0 1 -4.87023,2.81186 3.977,3.977 0 0 1 -2.81186,-4.87023 3.977,3.977 0 0 1 3.80611,-2.94394 z m -127.848621,8.38352 a 3.977,3.977 0 0 1 3.643011,2.45456 3.977,3.977 0 0 1 -2.151636,5.19635 3.977,3.977 0 0 1 -5.196349,-2.15164 3.977,3.977 0 0 1 2.151637,-5.19634 3.977,3.977 0 0 1 1.553496,-0.30293 z m 125.120401,0 a 3.977,3.977 0 0 1 1.43701,0.30293 3.977,3.977 0 0 1 2.15163,5.19634 3.977,3.977 0 0 1 -5.19635,2.15164 3.977,3.977 0 0 1 -2.15163,-5.19635 3.977,3.977 0 0 1 3.75949,-2.45456 z M 32.5338,121.28107 a 3.977,3.977 0 0 1 3.541995,1.9885 3.977,3.977 0 0 1 -1.452519,5.43735 3.977,3.977 0 0 1 -5.437355,-1.46031 3.977,3.977 0 0 1 1.460315,-5.4294 3.977,3.977 0 0 1 1.887524,-0.53594 z m 117.14253,0.008 a 3.977,3.977 0 0 1 2.17495,0.52819 3.977,3.977 0 0 1 1.46031,5.4294 3.977,3.977 0 0 1 -5.43735,1.46031 3.977,3.977 0 0 1 -1.45252,-5.43735 3.977,3.977 0 0 1 3.25461,-1.98075 z m -111.944591,7.35586 a 3.977,3.977 0 0 1 2.974994,1.5535 3.977,3.977 0 0 1 -0.737932,5.57695 3.977,3.977 0 0 1 -5.569391,-0.73794 3.977,3.977 0 0 1 0.730138,-5.56939 3.977,3.977 0 0 1 2.602151,-0.82336 z m 107.144361,0 a 3.977,3.977 0 0 1 2.49338,0.82336 3.977,3.977 0 0 1 0.73013,5.57695 3.977,3.977 0 0 1 -5.57694,0.73014 3.977,3.977 0 0 1 -0.73014,-5.57695 3.977,3.977 0 0 1 3.08372,-1.5535 z m -101.429412,6.65671 a 3.977,3.977 0 0 1 2.749737,1.16514 3.977,3.977 0 0 1 0,5.62387 3.977,3.977 0 0 1 -5.623876,0 3.977,3.977 0 0 1 0,-5.62387 3.977,3.977 0 0 1 2.874019,-1.16514 z m 95.718432,0 a 3.977,3.977 0 0 1 2.74974,1.16514 3.977,3.977 0 0 1 0,5.62387 3.977,3.977 0 0 1 -5.62387,0 3.977,3.977 0 0 1 0,-5.62387 3.977,3.977 0 0 1 2.87401,-1.16514 z m -89.188198,5.83346 a 3.977,3.977 0 0 1 2.485625,0.82336 3.977,3.977 0 0 1 0.730137,5.57694 3.977,3.977 0 0 1 -5.576947,0.73014 3.977,3.977 0 0 1 -0.730138,-5.56939 3.977,3.977 0 0 1 3.091482,-1.56129 z m 82.252318,0.008 a 3.977,3.977 0 0 1 3.37889,1.5535 3.977,3.977 0 0 1 -0.73793,5.57695 3.977,3.977 0 0 1 -5.57694,-0.73794 3.977,3.977 0 0 1 0.73793,-5.57694 3.977,3.977 0 0 1 2.19824,-0.81561 z m -75.010201,4.91677 a 3.977,3.977 0 0 1 2.174941,0.52818 3.977,3.977 0 0 1 1.45256,5.43736 3.977,3.977 0 0 1 -5.429401,1.45252 3.977,3.977 0 0 1 -1.452519,-5.4294 3.977,3.977 0 0 1 3.254617,-1.9885 z m 67.780011,0 a 3.977,3.977 0 0 1 3.53424,1.9885 3.977,3.977 0 0 1 -1.45252,5.4294 3.977,3.977 0 0 1 -5.43735,-1.45252 3.977,3.977 0 0 1 1.46031,-5.43736 3.977,3.977 0 0 1 1.89528,-0.52818 z m -59.571483,3.91484 a 3.977,3.977 0 0 1 1.437009,0.30293 3.977,3.977 0 0 1 2.151637,5.19634 3.977,3.977 0 0 1 -5.196349,2.15164 3.977,3.977 0 0 1 -2.151636,-5.19635 3.977,3.977 0 0 1 3.759498,-2.45456 z m 51.748723,0 a 3.977,3.977 0 0 1 3.64301,2.45456 3.977,3.977 0 0 1 -2.15163,5.19635 3.977,3.977 0 0 1 -5.19635,-2.15164 3.977,3.977 0 0 1 2.15163,-5.19634 3.977,3.977 0 0 1 1.5535,-0.30293 z m -43.48054,2.84355 a 3.977,3.977 0 0 1 1.064165,0.13983 3.977,3.977 0 0 1 2.811859,4.87024 3.977,3.977 0 0 1 -4.870235,2.81186 3.977,3.977 0 0 1 -2.811858,-4.87024 3.977,3.977 0 0 1 3.806108,-2.95169 z m 34.82977,0.008 a 3.977,3.977 0 0 1 4.08557,2.94393 3.977,3.977 0 0 1 -2.81186,4.87024 3.977,3.977 0 0 1 -4.87023,-2.81186 3.977,3.977 0 0 1 2.81186,-4.87024 3.977,3.977 0 0 1 0.78454,-0.13203 z m -26.270073,1.72438 a 3.977,3.977 0 0 1 0.675772,0.031 3.977,3.977 0 0 1 3.425509,4.45862 3.977,3.977 0 0 1 -4.458615,3.42551 3.977,3.977 0 0 1 -3.425509,-4.45862 3.977,3.977 0 0 1 3.782803,-3.45657 z m 17.702422,0 a 3.977,3.977 0 0 1 4.070061,3.45657 3.977,3.977 0 0 1 -3.42551,4.45862 3.977,3.977 0 0 1 -4.46617,-3.42551 3.977,3.977 0 0 1 3.42551,-4.45862 3.977,3.977 0 0 1 0.396149,-0.031 z m -8.705653,0.56871 a 3.977,3.977 0 0 1 3.977,3.977 3.977,3.977 0 0 1 -3.977,3.977 3.977,3.977 0 0 1 -3.977,-3.977 3.977,3.977 0 0 1 3.977,-3.977 z"
     id="path16"
     inkscape:connector-curvature="0" />
  <circle
     cx="91.254997"
     cy="91.406898"
     r="50.181786"
     id="circle18"
     style="fill:none;stroke:#4d4d4d;stroke-width:1.9885;stroke-linecap:round;stroke-linejoin:round" />
  <circle
     cy="91.406898"
     cx="91.254997"
     r="40.489838"
     id="circle20"
     style="fill:none;stroke:#4d4d4d;stroke-width:0.99425;stroke-linecap:round;stroke-linejoin:round" />
  <g
     id="g22"
     style="fill:#afafe9"
     transform="matrix(3.977,0,0,3.977,-4.193,-3998.54)">
    <circle
       cx="-242.98"
       transform="matrix(0.96592583,-0.25881905,0.25881905,0.96592583,0,0)"
       cy="988.84998"
       id="circle24"
       r="0" />
    <circle
       cx="-493.39999"
       transform="matrix(0.8660254,-0.5,0.5,0.8660254,0,0)"
       cy="891.90997"
       id="circle26"
       r="0" />
    <circle
       cx="-710.19"
       transform="matrix(0.70710678,-0.70710678,0.70710678,0.70710678,0,0)"
       cy="733.45001"
       id="circle28"
       r="0" />
    <circle
       cx="-878.59003"
       transform="matrix(0.49998488,-0.86603413,0.86603413,0.49998488,0,0)"
       cy="524.28998"
       id="circle30"
       r="0" />
    <circle
       cx="-987.10999"
       transform="matrix(0.25880219,-0.96593034,0.96593034,0.25880219,0,0)"
       cy="278.66"
       id="circle32"
       r="0" />
    <circle
       cx="-1028.4"
       transform="matrix(0,-1,1,0,0,0)"
       cy="13.319"
       id="circle34"
       r="0" />
    <circle
       cx="-999.53998"
       transform="matrix(-0.25881905,-0.96592583,0.96592583,-0.25881905,0,0)"
       cy="-253.66"
       id="circle36"
       r="0" />
    <circle
       cx="-902.59003"
       transform="matrix(-0.5,-0.8660254,0.8660254,-0.5,0,0)"
       cy="-504.07999"
       id="circle38"
       r="0" />
    <circle
       cx="-744.13"
       transform="matrix(-0.70710678,-0.70710678,0.70710678,-0.70710678,0,0)"
       cy="-720.87"
       id="circle40"
       r="0" />
    <circle
       cx="-534.96997"
       transform="matrix(-0.8660254,-0.5,0.5,-0.8660254,0,0)"
       cy="-889.27002"
       id="circle42"
       r="0" />
    <circle
       cx="-289.34"
       transform="matrix(-0.96592583,-0.25881905,0.25881905,-0.96592583,0,0)"
       cy="-997.78998"
       id="circle44"
       r="0" />
    <circle
       cx="242.98"
       transform="matrix(-0.96592583,0.25881905,-0.25881905,-0.96592583,0,0)"
       cy="-1010.2"
       id="circle46"
       r="0" />
    <circle
       cx="-24"
       transform="scale(-1,-1)"
       cy="-1039"
       id="circle48"
       r="0" />
    <circle
       cx="493.39999"
       transform="matrix(-0.8660254,0.5,-0.5,-0.8660254,0,0)"
       cy="-913.27002"
       id="circle50"
       r="0" />
    <circle
       cx="710.19"
       transform="matrix(-0.70710678,0.70710678,-0.70710678,-0.70710678,0,0)"
       cy="-754.82001"
       id="circle52"
       r="0" />
    <circle
       cx="878.59003"
       transform="matrix(-0.5,0.8660254,-0.8660254,-0.5,0,0)"
       cy="-545.65002"
       id="circle54"
       r="0" />
    <circle
       cx="987.10999"
       transform="matrix(-0.25881905,0.96592583,-0.96592583,-0.25881905,0,0)"
       cy="-300.01999"
       id="circle56"
       r="0" />
    <circle
       cx="1028.4"
       transform="matrix(0,1,-1,0,0,0)"
       cy="-34.681"
       id="circle58"
       r="0" />
    <circle
       cx="999.53998"
       transform="matrix(0.25880219,0.96593034,-0.96593034,0.25880219,0,0)"
       cy="232.3"
       id="circle60"
       r="0" />
    <circle
       cx="902.59003"
       transform="matrix(0.49998488,0.86603413,-0.86603413,0.49998488,0,0)"
       cy="482.72"
       id="circle62"
       r="0" />
    <circle
       cx="744.13"
       transform="matrix(0.70710678,0.70710678,-0.70710678,0.70710678,0,0)"
       cy="699.51001"
       id="circle64"
       r="0" />
    <circle
       cx="289.34"
       transform="matrix(0.96592583,0.25881905,-0.25881905,0.96592583,0,0)"
       cy="976.42999"
       id="circle66"
       r="0" />
    <circle
       cx="534.96997"
       transform="matrix(0.8660254,0.5,-0.5,0.8660254,0,0)"
       cy="867.90997"
       id="circle68"
       r="0" />
    <circle
       cy="1017.7"
       cx="24"
       id="circle70"
       r="0" />
  </g>
  <g
     id="g72"
     style="fill:none;stroke:#4d4d4d;stroke-width:0.5;stroke-linejoin:round"
     transform="matrix(3.977,0,0,3.977,-4.193,-3998.54)">
    <path
       d="m 19.953,1009.6 c 0.16058,-0.6601 -0.44593,-0.9492 -0.7738,-1.0941 -0.32787,-0.1448 -0.79286,-1.0889 -0.79286,-1.0889 0,0 0.06932,1.0501 -0.14219,1.3395 -0.21151,0.2894 -0.59222,0.843 -0.12308,1.3344 0.46912,0.4913 0.71149,0.3665 1.0552,0.2743 0.34375,-0.092 0.61611,-0.105 0.77669,-0.7652 z"
       id="path74"
       inkscape:connector-curvature="0"
       style="stroke:#4d4d4d" />
    <path
       d="m 15.233,1011.3 c -0.01575,-0.6792 -0.67642,-0.8015 -1.0306,-0.8566 -0.3542,-0.055 -1.0477,-0.8465 -1.0477,-0.8465 0,0 0.33873,0.9963 0.20933,1.3306 -0.1294,0.3343 -0.35386,0.9675 0.22649,1.3208 0.5803,0.3531 0.78209,0.1698 1.0903,-0.01 0.3082,-0.1779 0.56793,-0.2609 0.55218,-0.9401 z"
       id="path76"
       inkscape:connector-curvature="0"
       style="stroke:#4d4d4d" />
    <path
       d="m 11.111,1014.1 c -0.19101,-0.652 -0.8608,-0.5991 -1.2172,-0.5606 -0.35638,0.038 -1.2311,-0.5466 -1.2311,-0.5466 0,0 0.58505,0.8747 0.54658,1.2311 -0.038469,0.3563 -0.09138,1.0261 0.56062,1.2171 0.65193,0.191 0.79939,-0.038 1.051,-0.29 0.25164,-0.2516 0.48105,-0.399 0.29004,-1.051 z"
       id="path78"
       inkscape:connector-curvature="0"
       style="stroke:#4d4d4d" />
    <path
       d="m 7.8671,1018 c -0.35325,-0.5803 -0.98653,-0.3559 -1.3208,-0.2265 -0.33428,0.1294 -1.3306,-0.2093 -1.3306,-0.2093 0,0 0.7915,0.6935 0.84659,1.0477 0.055081,0.3541 0.17733,1.0148 0.85655,1.0306 0.67914,0.016 0.76221,-0.244 0.94015,-0.5522 0.17794,-0.3082 0.36138,-0.51 0.00813,-1.0903 z"
       id="path80"
       inkscape:connector-curvature="0"
       style="stroke:#4d4d4d" />
    <path
       d="m 5.7228,1022.5 c -0.49142,-0.4692 -1.045,-0.088 -1.3344,0.123 -0.2894,0.2116 -1.3394,0.1422 -1.3394,0.1422 0,0 0.94402,0.465 1.0889,0.7929 0.14488,0.3279 0.43395,0.9344 1.0941,0.7738 0.66006,-0.1606 0.67309,-0.4329 0.7652,-0.7767 0.092107,-0.3437 0.21709,-0.5861 -0.27433,-1.0552 z"
       id="path82"
       inkscape:connector-curvature="0"
       style="stroke:#4d4d4d" />
    <path
       d="m 4.8241,1027.4 c -0.5961,-0.326 -1.0323,0.185 -1.2571,0.4642 -0.2248,0.2792 -1.257,0.484 -1.257,0.484 0,0 1.0322,0.2049 1.257,0.4841 0.2248,0.2792 0.661,0.7902 1.2571,0.4642 0.596,-0.3259 0.5381,-0.5924 0.5381,-0.9483 0,-0.3558 0.058,-0.6223 -0.5381,-0.9482 z"
       id="path84"
       inkscape:connector-curvature="0"
       style="stroke:#4d4d4d" />
    <path
       d="m 5.2321,1032.4 c -0.66016,-0.1606 -0.94923,0.4459 -1.0941,0.7738 -0.14488,0.3278 -1.0889,0.7928 -1.0889,0.7928 0,0 1.05,-0.069 1.3394,0.1422 0.2894,0.2115 0.843,0.5922 1.3344,0.1231 0.49132,-0.4691 0.36644,-0.7115 0.27433,-1.0552 -0.092107,-0.3438 -0.10504,-0.6162 -0.7652,-0.7767 z"
       id="path86"
       inkscape:connector-curvature="0"
       style="stroke:#4d4d4d" />
    <path
       d="m 6.9192,1037.1 c -0.67922,0.016 -0.80147,0.6765 -0.85655,1.0307 -0.055081,0.3542 -0.84659,1.0476 -0.84659,1.0476 0,0 0.99632,-0.3387 1.3306,-0.2093 0.33428,0.1294 0.96756,0.3539 1.3208,-0.2265 0.35317,-0.5803 0.16981,-0.7821 -0.00813,-1.0903 -0.17794,-0.3082 -0.26092,-0.5679 -0.94015,-0.5522 z"
       id="path88"
       inkscape:connector-curvature="0"
       style="stroke:#4d4d4d" />
    <path
       d="m 9.7702,1041.3 c -0.652,0.191 -0.59909,0.8608 -0.56062,1.2172 0.038469,0.3563 -0.54658,1.231 -0.54658,1.231 0,0 0.8747,-0.585 1.2311,-0.5465 0.35638,0.038 1.0262,0.091 1.2172,-0.5607 0.19094,-0.6519 -0.0384,-0.7994 -0.29004,-1.051 -0.25164,-0.2516 -0.39902,-0.481 -1.051,-0.29 z"
       id="path90"
       inkscape:connector-curvature="0"
       style="stroke:#4d4d4d" />
    <path
       d="m 13.591,1044.5 c -0.58035,0.3533 -0.35588,0.9865 -0.22649,1.3208 0.1294,0.3343 -0.20933,1.3306 -0.20933,1.3306 0,0 0.69347,-0.7915 1.0477,-0.8466 0.3542,-0.055 1.0149,-0.1773 1.0306,-0.8565 0.0157,-0.6791 -0.24399,-0.7622 -0.55218,-0.9402 -0.3082,-0.1779 -0.50993,-0.3613 -1.0903,-0.01 z"
       id="path92"
       inkscape:connector-curvature="0"
       style="stroke:#4d4d4d" />
    <path
       d="m 18.121,1046.6 c -0.46914,0.4915 -0.08843,1.0451 0.12308,1.3345 0.21151,0.2894 0.14219,1.3394 0.14219,1.3394 0,0 0.46499,-0.944 0.79286,-1.0889 0.32787,-0.1449 0.93438,-0.4339 0.7738,-1.0941 -0.16061,-0.6601 -0.43295,-0.6731 -0.7767,-0.7652 -0.34375,-0.092 -0.58609,-0.2171 -1.0552,0.2743 z"
       id="path94"
       inkscape:connector-curvature="0"
       style="stroke:#4d4d4d" />
    <path
       d="m 23.052,1047.5 c -0.32597,0.5961 0.18506,1.0323 0.46426,1.2571 0.2792,0.2248 0.48402,1.257 0.48402,1.257 0,0 0.20481,-1.0322 0.48402,-1.257 0.2792,-0.2248 0.79023,-0.661 0.46426,-1.2571 -0.32597,-0.596 -0.5924,-0.5381 -0.94828,-0.5381 -0.35587,0 -0.62231,-0.058 -0.94828,0.5381 z"
       id="path96"
       inkscape:connector-curvature="0"
       style="stroke:#4d4d4d" />
    <path
       d="m 28.047,1047.1 c -0.16058,0.6602 0.44593,0.9493 0.7738,1.0941 0.32787,0.1449 0.79286,1.0889 0.79286,1.0889 0,0 -0.06932,-1.05 0.14219,-1.3394 0.21151,-0.2894 0.59223,-0.843 0.12308,-1.3344 -0.46912,-0.4913 -0.71149,-0.3665 -1.0552,-0.2744 -0.34375,0.092 -0.61611,0.1051 -0.7767,0.7652 z"
       id="path98"
       inkscape:connector-curvature="0"
       style="stroke:#4d4d4d" />
    <path
       d="m 32.767,1045.4 c 0.01575,0.6792 0.67642,0.8015 1.0306,0.8565 0.3542,0.055 1.0477,0.8466 1.0477,0.8466 0,0 -0.33873,-0.9963 -0.20933,-1.3306 0.1294,-0.3343 0.35386,-0.9675 -0.22649,-1.3208 -0.5803,-0.3532 -0.78209,-0.1698 -1.0903,0.01 -0.3082,0.178 -0.56793,0.261 -0.55218,0.9402 z"
       id="path100"
       inkscape:connector-curvature="0"
       style="stroke:#4d4d4d" />
    <path
       d="m 36.889,1042.6 c 0.19101,0.652 0.8608,0.5991 1.2172,0.5606 0.35638,-0.038 1.2311,0.5466 1.2311,0.5466 0,0 -0.58505,-0.8747 -0.54658,-1.2311 0.03847,-0.3564 0.09138,-1.0261 -0.56062,-1.2172 -0.65193,-0.1909 -0.79939,0.038 -1.051,0.2901 -0.25164,0.2516 -0.48105,0.399 -0.29004,1.051 z"
       id="path102"
       inkscape:connector-curvature="0"
       style="stroke:#4d4d4d" />
    <path
       d="m 40.133,1038.8 c 0.35325,0.5803 0.98653,0.3559 1.3208,0.2265 0.33428,-0.1294 1.3306,0.2093 1.3306,0.2093 0,0 -0.7915,-0.6935 -0.84658,-1.0477 -0.05508,-0.3542 -0.17733,-1.0148 -0.85655,-1.0306 -0.67914,-0.016 -0.76221,0.244 -0.94015,0.5522 -0.17794,0.3082 -0.36138,0.5099 -0.0081,1.0903 z"
       id="path104"
       inkscape:connector-curvature="0"
       style="stroke:#4d4d4d" />
    <path
       d="m 42.277,1034.2 c 0.49142,0.4692 1.045,0.089 1.3344,-0.1231 0.2894,-0.2115 1.3394,-0.1421 1.3394,-0.1421 0,0 -0.94402,-0.465 -1.0889,-0.7929 -0.14488,-0.3279 -0.43395,-0.9344 -1.0941,-0.7738 -0.66006,0.1606 -0.67309,0.4329 -0.7652,0.7767 -0.09211,0.3437 -0.21709,0.5861 0.27433,1.0552 z"
       id="path106"
       inkscape:connector-curvature="0"
       style="stroke:#4d4d4d" />
    <path
       d="m 43.176,1029.3 c 0.5961,0.326 1.0323,-0.185 1.2571,-0.4642 0.2248,-0.2792 1.257,-0.4841 1.257,-0.4841 0,0 -1.0322,-0.2048 -1.257,-0.484 -0.2248,-0.2792 -0.661,-0.7902 -1.2571,-0.4642 -0.596,0.3259 -0.5381,0.5924 -0.5381,0.9482 0,0.3559 -0.058,0.6224 0.5381,0.9483 z"
       id="path108"
       inkscape:connector-curvature="0"
       style="stroke:#4d4d4d" />
    <path
       d="m 42.768,1024.3 c 0.66016,0.1606 0.94923,-0.4459 1.0941,-0.7738 0.14488,-0.3279 1.0889,-0.7928 1.0889,-0.7928 0,0 -1.05,0.069 -1.3394,-0.1422 -0.2894,-0.2115 -0.843,-0.5923 -1.3344,-0.1231 -0.49132,0.4691 -0.36644,0.7115 -0.27433,1.0552 0.09211,0.3438 0.10504,0.6161 0.7652,0.7767 z"
       id="path110"
       inkscape:connector-curvature="0"
       style="stroke:#4d4d4d" />
    <path
       d="m 41.081,1019.6 c 0.67922,-0.016 0.80147,-0.6764 0.85655,-1.0306 0.05508,-0.3542 0.84659,-1.0476 0.84659,-1.0476 0,0 -0.99632,0.3387 -1.3306,0.2093 -0.33428,-0.1294 -0.96756,-0.3539 -1.3208,0.2265 -0.35317,0.5803 -0.16981,0.7821 0.0081,1.0903 0.17794,0.3082 0.26092,0.5679 0.94015,0.5521 z"
       id="path112"
       inkscape:connector-curvature="0"
       style="stroke:#4d4d4d" />
    <path
       d="m 38.23,1015.5 c 0.652,-0.191 0.59909,-0.8608 0.56062,-1.2172 -0.03847,-0.3563 0.54658,-1.231 0.54658,-1.231 0,0 -0.8747,0.585 -1.2311,0.5465 -0.35638,-0.038 -1.0262,-0.091 -1.2172,0.5607 -0.19094,0.6519 0.0384,0.7993 0.29004,1.051 0.25164,0.2516 0.39903,0.481 1.051,0.29 z"
       id="path114"
       inkscape:connector-curvature="0"
       style="stroke:#4d4d4d" />
    <path
       d="m 34.409,1012.2 c 0.58035,-0.3533 0.35588,-0.9865 0.22649,-1.3208 -0.1294,-0.3343 0.20933,-1.3306 0.20933,-1.3306 0,0 -0.69347,0.7915 -1.0477,0.8466 -0.3542,0.055 -1.0149,0.1773 -1.0306,0.8565 -0.0157,0.6791 0.24399,0.7622 0.55218,0.9401 0.3082,0.178 0.50993,0.3614 1.0903,0.01 z"
       id="path116"
       inkscape:connector-curvature="0"
       style="stroke:#4d4d4d" />
    <path
       d="m 29.879,1010.1 c 0.46914,-0.4915 0.08843,-1.0451 -0.12308,-1.3345 -0.21151,-0.2894 -0.14219,-1.3394 -0.14219,-1.3394 0,0 -0.46499,0.944 -0.79286,1.0889 -0.32787,0.1449 -0.93438,0.4339 -0.7738,1.0941 0.16061,0.6601 0.43295,0.6731 0.7767,0.7652 0.34375,0.092 0.58609,0.2171 1.0552,-0.2743 z"
       id="path118"
       inkscape:connector-curvature="0"
       style="stroke:#4d4d4d" />
    <path
       d="m 24.948,1009.2 c 0.32597,-0.5961 -0.18506,-1.0323 -0.46426,-1.2571 -0.2792,-0.2248 -0.48402,-1.257 -0.48402,-1.257 0,0 -0.20481,1.0322 -0.48402,1.257 -0.2792,0.2248 -0.79023,0.661 -0.46426,1.2571 0.32597,0.596 0.5924,0.5381 0.94828,0.5381 0.35587,0 0.62231,0.058 0.94828,-0.5381 z"
       id="path120"
       inkscape:connector-curvature="0"
       style="stroke:#4d4d4d" />
    <path
       d="m 17.538,1010.3 c 0.07306,-0.6754 -0.566,-0.8829 -0.90999,-0.9838 -0.34396,-0.1008 -0.92817,-0.976 -0.92817,-0.976 0,0 0.20576,1.032 0.03384,1.3465 -0.17193,0.3145 -0.47713,0.9131 0.05212,1.3391 0.52924,0.4259 0.75323,0.2704 1.082,0.1343 0.32864,-0.1367 0.59706,-0.1848 0.67017,-0.8601 z"
       id="path122"
       inkscape:connector-curvature="0"
       style="stroke:#4d4d4d" />
    <path
       d="m 13.079,1012.6 c -0.10424,-0.6713 -0.77522,-0.7063 -1.1336,-0.7147 -0.35834,-0.01 -1.1492,-0.7026 -1.1492,-0.7026 0,0 0.46586,0.9436 0.38119,1.2919 -0.08467,0.3483 -0.22455,1.0055 0.39691,1.2799 0.62145,0.2745 0.79757,0.066 1.0799,-0.1503 0.28206,-0.2171 0.52888,-0.333 0.42474,-1.0042 z"
       id="path124"
       inkscape:connector-curvature="0"
       style="stroke:#4d4d4d" />
    <path
       d="m 9.364,1015.9 c -0.27444,-0.6215 -0.93162,-0.4816 -1.28,-0.397 -0.34829,0.085 -1.2918,-0.3812 -1.2918,-0.3812 0,0 0.6942,0.7909 0.70257,1.1492 0.00836,0.3584 0.043344,1.0294 0.71466,1.1336 0.6713,0.1042 0.78755,-0.1424 1.0042,-0.4247 0.21625,-0.2827 0.42466,-0.4586 0.15036,-1.0799 z"
       id="path126"
       inkscape:connector-curvature="0"
       style="stroke:#4d4d4d" />
    <path
       d="m 6.6466,1020.2 c -0.42594,-0.5293 -1.0245,-0.2241 -1.3391,-0.052 -0.3145,0.1719 -1.3465,-0.034 -1.3465,-0.034 0,0 0.87524,0.5843 0.97606,0.9283 0.10082,0.3439 0.30828,0.983 0.9837,0.9099 0.67541,-0.073 0.72386,-0.3413 0.86009,-0.6701 0.13571,-0.329 0.29149,-0.5529 -0.13427,-1.082 z"
       id="path128"
       inkscape:connector-curvature="0"
       style="stroke:#4d4d4d" />
    <path
       d="m 5.1119,1024.9 c -0.5484,-0.401 -1.0476,0.049 -1.307,0.2961 -0.25929,0.2475 -1.3094,0.3158 -1.3094,0.3158 0,0 0.99663,0.3378 1.183,0.644 0.18641,0.3062 0.55221,0.8698 1.1857,0.6244 0.63349,-0.2454 0.61085,-0.5171 0.65735,-0.8699 0.04592,-0.353 0.13846,-0.6095 -0.40975,-1.0104 z"
       id="path130"
       inkscape:connector-curvature="0"
       style="stroke:#4d4d4d" />
    <path
       d="m 4.8644,1029.9 c -0.6335,-0.2454 -0.9993,0.3182 -1.1858,0.6243 -0.1864,0.3062 -1.183,0.644 -1.183,0.644 0,0 1.0501,0.068 1.3094,0.3158 0.2593,0.2475 0.7585,0.6972 1.3069,0.2962 0.5484,-0.401 0.4562,-0.6576 0.4098,-1.0104 -0.047,-0.3528 -0.024,-0.6245 -0.6573,-0.8699 z"
       id="path132"
       inkscape:connector-curvature="0"
       style="stroke:#4d4d4d" />
    <path
       d="m 5.9209,1034.8 c -0.67542,-0.073 -0.88289,0.566 -0.9838,0.91 -0.10081,0.344 -0.97603,0.9282 -0.97603,0.9282 0,0 1.032,-0.2058 1.3465,-0.034 0.31452,0.172 0.9131,0.4772 1.339,-0.052 0.42594,-0.5292 0.27046,-0.7532 0.13433,-1.082 -0.13672,-0.3287 -0.18483,-0.5971 -0.86006,-0.6702 z"
       id="path134"
       inkscape:connector-curvature="0"
       style="stroke:#4d4d4d" />
    <path
       d="m 8.2095,1039.3 c -0.67132,0.1043 -0.70632,0.7752 -0.71475,1.1336 -0.00835,0.3584 -0.70254,1.1492 -0.70254,1.1492 0,0 0.94359,-0.4659 1.2919,-0.3812 0.3483,0.085 1.0055,0.2245 1.2799,-0.3969 0.27444,-0.6215 0.066298,-0.7976 -0.1503,-1.0799 -0.21712,-0.2821 -0.33306,-0.5289 -1.0042,-0.4248 z"
       id="path136"
       inkscape:connector-curvature="0"
       style="stroke:#4d4d4d" />
    <path
       d="m 11.574,1043 c -0.62146,0.2744 -0.48161,0.9316 -0.397,1.28 0.08468,0.3482 -0.38118,1.2918 -0.38118,1.2918 0,0 0.79086,-0.6942 1.1492,-0.7026 0.35834,-0.01 1.0293,-0.043 1.1336,-0.7146 0.10425,-0.6713 -0.14239,-0.7876 -0.42468,-1.0043 -0.28272,-0.2162 -0.4586,-0.4246 -1.0799,-0.1503 z"
       id="path138"
       inkscape:connector-curvature="0"
       style="stroke:#4d4d4d" />
    <path
       d="m 15.786,1045.7 c -0.52926,0.426 -0.22408,1.0245 -0.05219,1.3391 0.17194,0.3145 -0.03384,1.3465 -0.03384,1.3465 0,0 0.58424,-0.8752 0.92821,-0.9761 0.34397,-0.1008 0.98305,-0.3082 0.90999,-0.9837 -0.07305,-0.6754 -0.34137,-0.7238 -0.67013,-0.8601 -0.32906,-0.1357 -0.55288,-0.2914 -1.082,0.1343 z"
       id="path140"
       inkscape:connector-curvature="0"
       style="stroke:#4d4d4d" />
    <path
       d="m 20.557,1047.3 c -0.40098,0.5484 0.04872,1.0476 0.29618,1.3069 0.24748,0.2593 0.31581,1.3094 0.31581,1.3094 0,0 0.33781,-0.9966 0.64396,-1.183 0.30616,-0.1865 0.86976,-0.5523 0.62438,-1.1857 -0.24537,-0.6335 -0.51709,-0.6109 -0.8699,-0.6574 -0.35297,-0.046 -0.60948,-0.1385 -1.0104,0.4098 z"
       id="path142"
       inkscape:connector-curvature="0"
       style="stroke:#4d4d4d" />
    <path
       d="m 25.563,1047.5 c -0.24538,0.6335 0.3182,0.9993 0.62436,1.1858 0.30615,0.1864 0.64393,1.183 0.64393,1.183 0,0 0.06835,-1.0501 0.31582,-1.3094 0.24748,-0.2593 0.6972,-0.7585 0.29622,-1.3069 -0.40097,-0.5484 -0.65756,-0.4562 -1.0104,-0.4098 -0.35283,0.047 -0.62455,0.024 -0.86994,0.6573 z"
       id="path144"
       inkscape:connector-curvature="0"
       style="stroke:#4d4d4d" />
    <path
       d="m 30.462,1046.4 c -0.07306,0.6754 0.566,0.8829 0.90999,0.9838 0.34397,0.1008 0.92817,0.976 0.92817,0.976 0,0 -0.20576,-1.032 -0.03384,-1.3465 0.17193,-0.3145 0.47713,-0.9131 -0.05212,-1.3391 -0.52924,-0.4259 -0.75323,-0.2704 -1.082,-0.1343 -0.32864,0.1367 -0.59706,0.1848 -0.67017,0.8601 z"
       id="path146"
       inkscape:connector-curvature="0"
       style="stroke:#4d4d4d" />
    <path
       d="m 34.921,1044.2 c 0.10424,0.6713 0.77522,0.7063 1.1336,0.7147 0.35834,0.01 1.1492,0.7026 1.1492,0.7026 0,0 -0.46586,-0.9436 -0.38119,-1.2919 0.08467,-0.3483 0.22455,-1.0055 -0.39691,-1.2799 -0.62145,-0.2745 -0.79757,-0.066 -1.0799,0.1503 -0.28206,0.2171 -0.52888,0.333 -0.42474,1.0042 z"
       id="path148"
       inkscape:connector-curvature="0"
       style="stroke:#4d4d4d" />
    <path
       d="m 38.636,1040.8 c 0.27444,0.6215 0.93162,0.4816 1.28,0.397 0.34829,-0.085 1.2918,0.3812 1.2918,0.3812 0,0 -0.6942,-0.7909 -0.70257,-1.1492 -0.0084,-0.3584 -0.04334,-1.0294 -0.71466,-1.1336 -0.6713,-0.1043 -0.78755,0.1424 -1.0042,0.4247 -0.21625,0.2827 -0.42466,0.4586 -0.15036,1.0799 z"
       id="path150"
       inkscape:connector-curvature="0"
       style="stroke:#4d4d4d" />
    <path
       d="m 41.353,1036.6 c 0.42594,0.5293 1.0245,0.2241 1.3391,0.052 0.3145,-0.1719 1.3465,0.034 1.3465,0.034 0,0 -0.87524,-0.5842 -0.97606,-0.9282 -0.10082,-0.3439 -0.30828,-0.983 -0.9837,-0.91 -0.67541,0.073 -0.72386,0.3414 -0.8601,0.6702 -0.13571,0.329 -0.29149,0.5529 0.13427,1.082 z"
       id="path152"
       inkscape:connector-curvature="0"
       style="stroke:#4d4d4d" />
    <path
       d="m 42.888,1031.8 c 0.5484,0.401 1.0476,-0.049 1.307,-0.2961 0.25929,-0.2475 1.3094,-0.3158 1.3094,-0.3158 0,0 -0.99663,-0.3379 -1.183,-0.644 -0.18641,-0.3062 -0.5522,-0.8698 -1.1857,-0.6244 -0.63349,0.2454 -0.61085,0.5171 -0.65735,0.8699 -0.04592,0.353 -0.13846,0.6095 0.40975,1.0104 z"
       id="path154"
       inkscape:connector-curvature="0"
       style="stroke:#4d4d4d" />
    <path
       d="m 43.136,1026.8 c 0.6335,0.2454 0.9993,-0.3182 1.1858,-0.6243 0.1864,-0.3062 1.183,-0.644 1.183,-0.644 0,0 -1.0501,-0.068 -1.3094,-0.3158 -0.2593,-0.2475 -0.7585,-0.6972 -1.3069,-0.2962 -0.5484,0.4009 -0.4562,0.6575 -0.4098,1.0104 0.047,0.3528 0.024,0.6245 0.6573,0.8699 z"
       id="path156"
       inkscape:connector-curvature="0"
       style="stroke:#4d4d4d" />
    <path
       d="m 42.079,1021.9 c 0.67542,0.073 0.88289,-0.566 0.9838,-0.91 0.10081,-0.344 0.97603,-0.9282 0.97603,-0.9282 0,0 -1.032,0.2058 -1.3465,0.034 -0.31452,-0.172 -0.9131,-0.4772 -1.339,0.052 -0.42594,0.5292 -0.27046,0.7532 -0.13433,1.082 0.13672,0.3287 0.18483,0.5971 0.86006,0.6702 z"
       id="path158"
       inkscape:connector-curvature="0"
       style="stroke:#4d4d4d" />
    <path
       d="m 39.791,1017.4 c 0.67132,-0.1043 0.70632,-0.7753 0.71476,-1.1336 0.0084,-0.3584 0.70254,-1.1492 0.70254,-1.1492 0,0 -0.94359,0.4659 -1.2919,0.3812 -0.3483,-0.085 -1.0055,-0.2246 -1.2799,0.3969 -0.27444,0.6215 -0.0663,0.7976 0.1503,1.0799 0.21712,0.2821 0.33306,0.5289 1.0042,0.4248 z"
       id="path160"
       inkscape:connector-curvature="0"
       style="stroke:#4d4d4d" />
    <path
       d="m 36.426,1013.7 c 0.62146,-0.2744 0.48161,-0.9316 0.397,-1.28 -0.08468,-0.3483 0.38118,-1.2918 0.38118,-1.2918 0,0 -0.79086,0.6942 -1.1492,0.7026 -0.35834,0.01 -1.0293,0.043 -1.1336,0.7146 -0.10425,0.6713 0.14239,0.7876 0.42468,1.0043 0.28272,0.2162 0.4586,0.4246 1.0799,0.1503 z"
       id="path162"
       inkscape:connector-curvature="0"
       style="stroke:#4d4d4d" />
    <path
       d="m 32.214,1011 c 0.52926,-0.426 0.22408,-1.0245 0.05219,-1.3391 -0.17194,-0.3145 0.03384,-1.3465 0.03384,-1.3465 0,0 -0.58424,0.8752 -0.92821,0.9761 -0.34397,0.1008 -0.98304,0.3082 -0.90998,0.9836 0.07305,0.6755 0.34137,0.7239 0.67013,0.8601 0.32906,0.1358 0.55288,0.2915 1.082,-0.1342 z"
       id="path164"
       inkscape:connector-curvature="0"
       style="stroke:#4d4d4d" />
    <path
       d="m 27.443,1009.5 c 0.40098,-0.5484 -0.04872,-1.0476 -0.29618,-1.307 -0.24748,-0.2592 -0.31581,-1.3093 -0.31581,-1.3093 0,0 -0.33781,0.9966 -0.64396,1.183 -0.30616,0.1865 -0.86976,0.5522 -0.62438,1.1857 0.24537,0.6335 0.51709,0.6109 0.8699,0.6574 0.35297,0.046 0.60948,0.1385 1.0104,-0.4098 z"
       id="path166"
       inkscape:connector-curvature="0"
       style="stroke:#4d4d4d" />
    <path
       d="m 22.437,1009.2 c 0.24538,-0.6335 -0.3182,-0.9993 -0.62436,-1.1858 -0.30615,-0.1864 -0.64393,-1.183 -0.64393,-1.183 0,0 -0.06835,1.0501 -0.31582,1.3094 -0.24748,0.2593 -0.6972,0.7585 -0.29622,1.3069 0.40097,0.5484 0.65756,0.4562 1.0104,0.4098 0.35283,-0.047 0.62455,-0.024 0.86994,-0.6573 z"
       id="path168"
       inkscape:connector-curvature="0"
       style="stroke:#4d4d4d" />
  </g>
  <g
     transform="translate(1.4358 -872.04)"
     stroke="#000"
     stroke-linecap="round"
     fill="none"
     id="g170">
    <g
       transform="matrix(3.977 0 0 3.977 -5.6288 -3126.5)"
       stroke-width="2"
       id="g172">
      <circle
         stroke-linejoin="round"
         cy="1028.4"
         cx="24"
         r="6.5"
         id="circle174" />
      <path
         d="m30.5 1028.5v-13.33"
         id="path176" />
      <path
         d="m34.5 1028.5v-13.33"
         id="path178" />
      <path
         stroke-linejoin="round"
         d="m34.5 1028.4a10.5 10.5 0 0 1 -10.5 10.5"
         id="path180" />
    </g>
  </g>
</svg>
